<svg xmlns="http://www.w3.org/2000/svg" viewBox="0 0 512 512">
<defs>
<radialGradient id="glow" cx="50%" cy="45%" r="60%"><stop offset="0" stop-color="#55e7ff" stop-opacity=".95"/><stop offset="1" stop-color="#020814" stop-opacity="0"/></radialGradient>
<linearGradient id="cyan" x1="0" x2="1"><stop stop-color="#48f1ff"/><stop offset="1" stop-color="#2ce39f"/></linearGradient>
<linearGradient id="pink" x1="0" x2="1"><stop stop-color="#ff4aa5"/><stop offset="1" stop-color="#ff7b3d"/></linearGradient>
<filter id="shadow"><feDropShadow dx="0" dy="10" stdDeviation="12" flood-color="#000" flood-opacity=".45"/></filter>
</defs>
<rect width="512" height="512" fill="transparent"/><circle cx="256" cy="256" r="230" fill="url(#glow)" opacity=".65"/><g filter="url(#shadow)"><rect x="158" y="142" width="196" height="235" rx="44" fill="#071126" stroke="#48f1ff" stroke-width="10"/><circle cx="220" cy="214" r="18" fill="#fff"/><circle cx="292" cy="214" r="18" fill="#fff"/><rect x="196" y="280" width="120" height="22" rx="11" fill="#49f1ff"/><rect x="100" y="220" width="70" height="32" rx="16" fill="#ffd84e"/><rect x="342" y="220" width="70" height="32" rx="16" fill="#ffd84e"/><path d="M205 132l40-58 34 58h-74zM272 132l39-58 35 58h-74z" fill="#071126"/><path d="M195 373l-32 72h45l30-72h-43zM317 373l32 72h-45l-30-72h43z" fill="#071126"/></g>
</svg>