<svg xmlns="http://www.w3.org/2000/svg" viewBox="0 0 512 512">
<defs>
<radialGradient id="glow" cx="50%" cy="45%" r="60%"><stop offset="0" stop-color="#55e7ff" stop-opacity=".95"/><stop offset="1" stop-color="#020814" stop-opacity="0"/></radialGradient>
<linearGradient id="cyan" x1="0" x2="1"><stop stop-color="#48f1ff"/><stop offset="1" stop-color="#2ce39f"/></linearGradient>
<linearGradient id="pink" x1="0" x2="1"><stop stop-color="#ff4aa5"/><stop offset="1" stop-color="#ff7b3d"/></linearGradient>
<filter id="shadow"><feDropShadow dx="0" dy="10" stdDeviation="12" flood-color="#000" flood-opacity=".45"/></filter>
</defs>
<rect width="512" height="512" fill="transparent"/><circle cx="256" cy="256" r="235" fill="#0a0b10"/><g filter="url(#shadow)"><path d="M98 284c-18-108 71-183 165-169 72 11 153 70 151 157-2 75-60 129-135 137-88 10-165-28-181-125z" fill="#57335f" stroke="#92ff95" stroke-width="10"/><circle cx="214" cy="235" r="22" fill="#92ff95"/><circle cx="303" cy="235" r="22" fill="#92ff95"/><path d="M201 309q55 38 111 0" fill="none" stroke="#92ff95" stroke-width="14" stroke-linecap="round"/><path d="M112 346c52-20 76-1 111 34-40 22-83 23-111-34z" fill="#5bcf72" opacity=".75"/></g>
</svg>