<svg xmlns="http://www.w3.org/2000/svg" viewBox="0 0 1200 675" role="img" aria-label="Brick Blaster">
  <defs>
    <linearGradient id="bg" x1="0" y1="0" x2="1" y2="1"><stop offset="0" stop-color="#020617"/><stop offset="0.45" stop-color="#0f172a"/><stop offset="1" stop-color="#312e81"/></linearGradient>
    <linearGradient id="p" x1="0" y1="0" x2="1" y2="1"><stop offset="0" stop-color="#38bdf8"/><stop offset="0.55" stop-color="#a78bfa"/><stop offset="1" stop-color="#f0abfc"/></linearGradient>
    <filter id="glow"><feGaussianBlur stdDeviation="10" result="b"/><feMerge><feMergeNode in="b"/><feMergeNode in="SourceGraphic"/></feMerge></filter>
  </defs>
  <rect width="1200" height="675" fill="url(#bg)"/>
  <circle cx="210" cy="110" r="240" fill="#38bdf8" opacity="0.16"/>
  <circle cx="990" cy="140" r="260" fill="#a78bfa" opacity="0.18"/>
  <g filter="url(#glow)">
    <g transform="translate(160 135)">
      <rect width="130" height="52" rx="16" fill="#38bdf8"/>
      <rect x="150" width="130" height="52" rx="16" fill="#60a5fa"/>
      <rect x="300" width="130" height="52" rx="16" fill="#a78bfa"/>
      <rect x="450" width="130" height="52" rx="16" fill="#facc15"/>
      <rect x="600" width="130" height="52" rx="16" fill="#fb7185"/>
      <rect y="76" width="130" height="52" rx="16" fill="#22c55e"/>
      <rect x="150" y="76" width="130" height="52" rx="16" fill="#14b8a6"/>
      <rect x="300" y="76" width="130" height="52" rx="16" fill="#f97316"/>
      <rect x="450" y="76" width="130" height="52" rx="16" fill="#e879f9"/>
      <rect x="600" y="76" width="130" height="52" rx="16" fill="#818cf8"/>
    </g>
    <rect x="410" y="530" width="380" height="42" rx="21" fill="url(#p)"/>
    <circle cx="610" cy="435" r="34" fill="#e0f2fe"/>
    <circle cx="610" cy="435" r="44" fill="none" stroke="#a78bfa" stroke-width="9" opacity="0.8"/>
  </g>
  <text x="600" y="630" text-anchor="middle" font-family="system-ui,Segoe UI,Arial" font-size="76" font-weight="1000" fill="white" letter-spacing="-5">Brick Blaster</text>
</svg>
